MoBL_ARMS_module2_4_allmuscles elbow_states	
version=1	
nRows=336	
nColumns=2	
inDegrees=yes	
	
# SIMM Motion File Header:	
name MoBL_ARMS_module2_4_allmuscles elbow_states	
datacolumns 2	
datarows 336	
otherdata 1	
range 3.284440412 4.025084036	
endheader	
time	elbow_flexion
3.284440412	111.5680944
3.286524459	111.5994157
3.289095978	111.6373284
3.291179949	111.6674434
3.293263919	111.6969967
3.29534789	111.7259703
3.297919737	111.7608988
3.300003636	111.7885055
3.302087536	111.815468
3.304171436	111.8417638
3.306743506	111.8732613
3.30882733	111.897966
3.310911153	111.9219033
3.312994976	111.945034
3.31556752	111.9724174
3.317651244	111.9936011
3.319734967	112.0138524
3.321818691	112.0331355
3.324391521	112.0555566
3.32647523	112.0725486
3.328558939	112.0884583
3.330642648	112.1032499
3.333215574	112.1199195
3.335299251	112.1320883
3.337382929	112.1430337
3.339466606	112.152729
3.342039649	112.1629413
3.344123307	112.1697606
3.346206965	112.1752608
3.348290624	112.1794246
3.350863719	112.1826995
3.352947399	112.183824
3.35503108	112.1835705
3.357114761	112.1819317
3.359687827	112.1779899
3.361771468	112.1732431
3.363855109	112.1671067
3.36593875	112.1595853
3.368511937	112.1483951
3.370595567	112.1378044
3.372679198	112.1258557
3.374762828	112.1125603
3.377336071	112.0943007
3.379419686	112.0780418
3.3815033	112.0604804
3.383586915	112.0416329
3.386160218	112.0166079
3.388243821	111.9949522
3.390327424	111.972069
3.392411027	111.9479739
3.39498438	111.9165615
3.397067973	111.8898005
3.399151566	111.8618623
3.401235159	111.8327563
3.403808553	111.7952105
3.405892138	111.7635275
3.407975723	111.7307029
3.410059308	111.6967402
3.412632734	111.6532246
3.414716313	111.6167232
3.416799891	111.5790874
3.41888347	111.5403195
3.421456899	111.4908806
3.423540502	111.4495979
3.425624106	111.4072
3.42770771	111.3636949
3.430281081	111.3084484
3.432364665	111.2625021
3.434448249	111.2154803
3.436531833	111.1673943
3.439105259	111.1065516
3.441188837	111.056129
3.443272416	111.0046811
3.445355995	110.9522216
3.447929449	110.8860533
3.450013021	110.8313857
3.452096593	110.7757545
3.454180164	110.7191733
3.456753632	110.6479946
3.458837208	110.5893301
3.460920784	110.5297487
3.463004361	110.4692598
3.465577827	110.3933118
3.467661404	110.3308345
3.469744982	110.2674886
3.471828559	110.2032878
3.474402024	110.1228329
3.476485592	110.0567717
3.47856916	109.9899015
3.480652728	109.9222391
3.483226222	109.8376019
3.485309788	109.7682426
3.487393353	109.6981634
3.489476919	109.6273912
3.492050426	109.5390633
3.494133987	109.4668482
3.496217549	109.3940392
3.498301111	109.3206709
3.500874556	109.2293342
3.502958213	109.1548435
3.505041869	109.0799103
3.507125525	109.0045687
3.509698737	108.9110107
3.511782333	108.8348754
3.51386593	108.7584341
3.515949526	108.6817171
3.518522881	108.5866297
3.520606482	108.5093966
3.522690083	108.4319709
3.524773684	108.3543718
3.527347053	108.2583181
3.52943064	108.1803913
3.531514228	108.1023423
3.533597816	108.0241852
3.536171217	107.9275239
3.538254814	107.8491682
3.540338411	107.7707418
3.542422009	107.692256
3.544995395	107.5952577
3.54707898	107.5166875
3.549162565	107.4381026
3.551246149	107.3595171
3.553819576	107.2624765
3.555903155	107.1839411
3.557986734	107.105452
3.560070313	107.027025
3.562643764	106.9302682
3.564727337	106.8520372
3.566810911	106.7739184
3.568894484	106.6959264
3.571467937	106.5997936
3.573551533	106.5221351
3.57563513	106.4446476
3.577718726	106.3673433
3.580292122	106.2721367
3.582375706	106.195283
3.584459289	106.1186478
3.586542872	106.0422414
3.589116304	105.948203
3.591199882	105.8723463
3.59328346	105.7967544
3.595367037	105.7214416
3.597940494	105.6288306
3.600024066	105.5542004
3.602107639	105.4799036
3.604191211	105.4059577
3.606764689	105.3151355
3.608848257	105.2420375
3.610931826	105.1693478
3.613015395	105.0970847
3.615588889	105.0084449
3.617672449	104.9371986
3.61975601	104.8664339
3.62183957	104.7961651
3.624413099	104.7100736
3.626496656	104.6409504
3.628580213	104.5723487
3.63066377	104.5042702
3.633237311	104.4209034
3.635320867	104.3539919
3.637404422	104.2875989
3.639487977	104.2217195
3.642061526	104.1410437
3.644145079	104.0762787
3.646228632	104.0119907
3.648312185	103.9481639
3.650885741	103.8699395
3.652969293	103.8070857
3.655052846	103.744641
3.657136398	103.6825886
3.659709961	103.6064579
3.661793511	103.5452168
3.66387706	103.4843071
3.66596061	103.423709
3.66853418	103.3492605
3.67061773	103.2892896
3.672701279	103.2295693
3.674784829	103.1700805
3.677358401	103.0968918
3.67944195	103.0378509
3.681525498	102.9789792
3.683609047	102.9202582
3.686182345	102.847916
3.688266245	102.7894566
3.690350145	102.7310868
3.692434045	102.6727854
3.69500646	102.6008809
3.697090153	102.5426655
3.699173847	102.4844548
3.70125754	102.4262288
3.703830436	102.3542802
3.705914151	102.2959411
3.707997865	102.2375148
3.71008158	102.1789801
3.712654501	102.1065232
3.714738174	102.0476744
3.716821846	101.9886511
3.718905519	101.9294316
3.72147853	101.8560016
3.723562242	101.796265
3.725645953	101.7362666
3.727729665	101.6759904
3.730302604	101.6011595
3.732386285	101.5402179
3.734469965	101.4789607
3.736553646	101.4173776
3.739126684	101.3408685
3.74121034	101.2785261
3.743293996	101.2158314
3.745377652	101.1527788
3.747950785	101.0744131
3.750034424	101.0105447
3.752118063	100.9463054
3.754201701	100.8816923
3.756774908	100.8013786
3.758858531	100.7359231
3.760942154	100.6700887
3.763025777	100.6038748
3.765599046	100.521577
3.767682654	100.4545155
3.769766261	100.3870737
3.771849868	100.3192509
3.774423205	100.2349599
3.776506801	100.1662833
3.778590397	100.0972236
3.780673993	100.0277772
3.783247373	99.94144204
3.785330961	99.87102967
3.787414548	99.80005792
3.789498135	99.72836263
3.792071553	99.63849783
3.794155086	99.56438967
3.796238618	99.48882317
3.79832215	99.4116184
3.800405683	99.33264492
3.803202446	99.22359274
3.805107413	99.14707326
3.807012379	99.06846154
3.809665079	98.95489242
3.811990992	98.85069952
3.814316905	98.74159456
3.816305717	98.64406723
3.818294529	98.5424165
3.820283341	98.43649067
3.823137894	98.27669708
3.825246054	98.15255649
3.827354213	98.02296216
3.829462372	97.88770055
3.831570532	97.74658801
3.834246118	97.55887234
3.836192466	97.41618962
3.838138814	97.26832803
3.840696685	97.06615351
3.843254555	96.85510991
3.845047108	96.70196589
3.846839661	96.54453584
3.849596216	96.29417075
3.852077659	96.0603453
3.854179685	95.85612559
3.856281712	95.64637727
3.858383738	95.43121148
3.860485765	95.21074449
3.863159698	94.92282157
3.865179992	94.69987158
3.867200286	94.47238405
3.869657223	94.18976891
3.87211416	93.90078856
3.873999898	93.67478988
3.875885636	93.44523237
3.878505634	93.12053322
3.880839662	92.8257873
3.88317369	92.52601777
3.885143492	92.2692191
3.887113295	92.00901836
3.889549695	91.68259044
3.891986096	91.3512162
3.893962635	91.07884777
3.895939174	90.80338449
3.898395845	90.45679752
3.900852515	90.10566746
3.902781056	89.82692189
3.904709596	89.54551334
3.907228426	89.1740562
3.909747255	88.79828214
3.911636149	88.51372951
3.913525043	88.22687559
3.916103915	87.83163348
3.918682787	87.43237589
3.920536647	87.14297169
3.922390507	86.85163427
3.92504883	86.43062418
3.927420248	86.05196476
3.929791667	85.67055195
3.931742969	85.3547532
3.933694271	85.03727121
3.936201066	84.62704862
3.938707862	84.21428799
3.940609166	83.89960154
3.94251047	83.58356332
3.945105856	83.1500477
3.947426471	82.76044474
3.949747087	82.36903738
3.951738987	82.03168251
3.953730887	81.69308466
3.956139175	81.2821037
3.958547463	80.8694377
3.960544732	80.5259763
3.962542002	80.18145233
3.964968303	79.76155856
3.967394604	79.34025005
3.969349324	78.9998573
3.971304043	78.65864674
3.973783023	78.22481709
3.976262002	77.7898355
3.978182408	77.45212835
3.980102814	77.1138185
3.982638053	76.66633137
3.985173293	76.21792798
3.987045925	75.88616951
3.988918556	75.55397232
3.991535142	75.08911056
3.993878968	74.67207006
3.996222794	74.25446654
3.998229415	73.89652213
4.000236036	73.5382071
4.002661523	73.10462232
4.005087011	72.67053838
4.007034211	72.32170261
4.008981411	71.97256347
4.011504864	71.5196601
4.014028316	71.06625297
4.015919197	70.7261458
4.017810078	70.38570651
4.020413995	69.91630637
4.022749016	69.49476254
4.025084036	69.07259049
